<?xml version="1.0" encoding="UTF-8" standalone="no"?>
<!DOCTYPE svg PUBLIC "-//W3C//DTD SVG 1.1//EN"
 "http://www.w3.org/Graphics/SVG/1.1/DTD/svg11.dtd">
<!-- Generated by graphviz version 2.35.20131203.0545 (20131203.0545)
 -->
<!-- Title: G Pages: 1 -->
<svg width="1582pt" height="116pt"
 viewBox="0.00 0.00 1582.00 116.00" xmlns="http://www.w3.org/2000/svg" xmlns:xlink="http://www.w3.org/1999/xlink">
<g id="graph0" class="graph" transform="scale(1 1) rotate(0) translate(4 112)">
<title>G</title>
<polygon fill="white" stroke="white" points="-4,4 -4,-112 1578,-112 1578,4 -4,4"/>
<!-- varint_encoding -->
<g id="node1" class="node"><title>varint_encoding</title>
<ellipse fill="none" stroke="black" cx="81" cy="-18" rx="81.3646" ry="18"/>
<text text-anchor="middle" x="81" y="-14.3" font-family="Times,serif" font-size="14.00">VarInt serialization</text>
</g>
<!-- key1_encrypt -->
<g id="node2" class="node"><title>key1_encrypt</title>
<ellipse fill="none" stroke="black" cx="291" cy="-90" rx="89.0632" ry="18"/>
<text text-anchor="middle" x="291" y="-86.3" font-family="Times,serif" font-size="14.00">PubKey1s encryption</text>
</g>
<!-- send_message -->
<g id="node3" class="node"><title>send_message</title>
<ellipse fill="none" stroke="black" cx="340" cy="-18" rx="159.329" ry="18"/>
<text text-anchor="middle" x="340" y="-14.3" font-family="Times,serif" font-size="14.00">Allow Alice to send messages to a router</text>
</g>
<!-- bigint_encoding -->
<g id="node4" class="node"><title>bigint_encoding</title>
<ellipse fill="none" stroke="black" cx="81" cy="-90" rx="80.389" ry="18"/>
<text text-anchor="middle" x="81" y="-86.3" font-family="Times,serif" font-size="14.00">BigInt serialization</text>
</g>
<!-- bigint_encoding&#45;&gt;varint_encoding -->
<g id="edge1" class="edge"><title>bigint_encoding&#45;&gt;varint_encoding</title>
<path fill="none" stroke="black" d="M81,-71.6966C81,-63.9827 81,-54.7125 81,-46.1124"/>
<polygon fill="black" stroke="black" points="84.5001,-46.1043 81,-36.1043 77.5001,-46.1044 84.5001,-46.1043"/>
</g>
<!-- pubkey1_encoding -->
<g id="node5" class="node"><title>pubkey1_encoding</title>
<ellipse fill="none" stroke="black" cx="1093" cy="-90" rx="91.4625" ry="18"/>
<text text-anchor="middle" x="1093" y="-86.3" font-family="Times,serif" font-size="14.00">PubKey1 serialization</text>
</g>
<!-- key1_decrypt -->
<g id="node6" class="node"><title>key1_decrypt</title>
<ellipse fill="none" stroke="black" cx="1292" cy="-90" rx="89.0632" ry="18"/>
<text text-anchor="middle" x="1292" y="-86.3" font-family="Times,serif" font-size="14.00">PriKey1s descryption</text>
</g>
<!-- retrieve_message -->
<g id="node7" class="node"><title>retrieve_message</title>
<ellipse fill="none" stroke="black" cx="702" cy="-18" rx="184.375" ry="18"/>
<text text-anchor="middle" x="702" y="-14.3" font-family="Times,serif" font-size="14.00">Allow Bob to retrieve messages from the router</text>
</g>
<!-- subscribe_message -->
<g id="node8" class="node"><title>subscribe_message</title>
<ellipse fill="none" stroke="black" cx="1137" cy="-18" rx="232.044" ry="18"/>
<text text-anchor="middle" x="1137" y="-14.3" font-family="Times,serif" font-size="14.00">Allow Bob to listen for new messages delivered to the router</text>
</g>
<!-- root -->
<g id="node9" class="node"><title>root</title>
<ellipse fill="none" stroke="black" cx="702" cy="-90" rx="281.138" ry="18"/>
<text text-anchor="middle" x="702" y="-86.3" font-family="Times,serif" font-size="14.00">Allow Alice to send Bob an encrypted, asynchronously delivered message</text>
</g>
<!-- root&#45;&gt;send_message -->
<g id="edge3" class="edge"><title>root&#45;&gt;send_message</title>
<path fill="none" stroke="black" d="M618.04,-72.7646C560.584,-61.6544 484.607,-46.9627 426.596,-35.7451"/>
<polygon fill="black" stroke="black" points="427.198,-32.2968 416.716,-33.8345 425.869,-39.1695 427.198,-32.2968"/>
</g>
<!-- root&#45;&gt;retrieve_message -->
<g id="edge4" class="edge"><title>root&#45;&gt;retrieve_message</title>
<path fill="none" stroke="black" d="M702,-71.6966C702,-63.9827 702,-54.7125 702,-46.1124"/>
<polygon fill="black" stroke="black" points="705.5,-46.1043 702,-36.1043 698.5,-46.1044 705.5,-46.1043"/>
</g>
<!-- root&#45;&gt;subscribe_message -->
<g id="edge2" class="edge"><title>root&#45;&gt;subscribe_message</title>
<path fill="none" stroke="black" d="M800.708,-73.1159C869.398,-62.0624 960.89,-47.3396 1031.1,-36.0413"/>
<polygon fill="black" stroke="black" points="1031.98,-39.4444 1041.3,-34.4 1030.87,-32.5333 1031.98,-39.4444"/>
</g>
<!-- prikey1_encoding -->
<g id="node10" class="node"><title>prikey1_encoding</title>
<ellipse fill="none" stroke="black" cx="1487" cy="-90" rx="87.613" ry="18"/>
<text text-anchor="middle" x="1487" y="-86.3" font-family="Times,serif" font-size="14.00">PriKey1 serialization</text>
</g>
</g>
</svg>
